# xmcd
#
# Track frame offsets:
#	150
#	14598
#	34532
#	51657
#	67222
#	89838
#	107309
#	135330
#	154664
#	177714
#	192795
#	211749
#	225186
#	244391
#	258135
#	274860
#	291919
#	306777
#	320437
#
# Disc length: 4440 seconds
#
# Revision: 0
# Processed by: cddbd v1.5PL3 Copyright (c) Steve Scherf et al.
# Submitted via: audiograbber 1.80
#
DISCID=12115613
DTITLE=Willy DeVille - Diverse
DYEAR=1900
DGENRE=
TTITLE0=This must be the night
TTITLE1=Heart and soul
TTITLE2=Can´t do without it
TTITLE3=Maybe tomorrow
TTITLE4=I must be dreaming
TTITLE5=Demasido Corazon
TTITLE6=Spanish stroll
TTITLE7=Stand by me
TTITLE8=Hey Joe
TTITLE9=Just give me one good reason
TTITLE10=Help me make it
TTITLE11=Maybe tomorrow
TTITLE12=Teardrops must fall
TTITLE13=You better move on
TTITLE14=Love and emotion
TTITLE15=So in love we are
TTITLE16=Love me like you did before
TTITLE17=She was made in heaven
TTITLE18=End of the line
EXTD=
EXTT0=
EXTT1=
EXTT2=
EXTT3=
EXTT4=
EXTT5=
EXTT6=
EXTT7=
EXTT8=
EXTT9=
EXTT10=
EXTT11=
EXTT12=
EXTT13=
EXTT14=
EXTT15=
EXTT16=
EXTT17=
EXTT18=
PLAYORDER=
